<svg width="18" height="18" viewBox="0 0 18 18" fill="none" xmlns="http://www.w3.org/2000/svg">
<g clip-path="url(#clip0_302_100)">
<path d="M16.875 0H1.125C0.820312 0 0.556641 0.111328 0.333984 0.333984C0.111328 0.556641 0 0.820312 0 1.125V16.875C0 17.1797 0.111328 17.4434 0.333984 17.666C0.556641 17.8887 0.820312 18 1.125 18H16.875C17.1797 18 17.4434 17.8887 17.666 17.666C17.8887 17.4434 18 17.1797 18 16.875V1.125C18 0.925781 17.9502 0.738281 17.8506 0.5625C17.751 0.386719 17.6133 0.249023 17.4375 0.149414C17.2617 0.0498047 17.0742 0 16.875 0ZM16.875 16.875H1.125V1.125H16.875V16.875ZM3.9375 6.1875H5.0625V7.3125C5.0625 7.47656 5.11816 7.61133 5.22949 7.7168C5.34082 7.82227 5.47266 7.875 5.625 7.875C5.77734 7.875 5.90918 7.82227 6.02051 7.7168C6.13184 7.61133 6.1875 7.47656 6.1875 7.3125V6.1875H7.3125C7.46484 6.1875 7.59668 6.13477 7.70801 6.0293C7.81934 5.92383 7.875 5.79199 7.875 5.63379C7.875 5.47559 7.81934 5.34082 7.70801 5.22949C7.59668 5.11816 7.46484 5.0625 7.3125 5.0625H6.1875V3.9375C6.1875 3.78516 6.13184 3.65332 6.02051 3.54199C5.90918 3.43066 5.77734 3.375 5.625 3.375C5.47266 3.375 5.34082 3.43066 5.22949 3.54199C5.11816 3.65332 5.0625 3.78516 5.0625 3.9375V5.0625H3.9375C3.78516 5.0625 3.65332 5.11816 3.54199 5.22949C3.43066 5.34082 3.375 5.47559 3.375 5.63379C3.375 5.79199 3.43066 5.92383 3.54199 6.0293C3.65332 6.13477 3.78516 6.1875 3.9375 6.1875ZM7.62012 10.3975C7.50879 10.2861 7.37402 10.2305 7.21582 10.2305C7.05762 10.2305 6.92578 10.2832 6.82031 10.3887L5.625 11.584L4.42969 10.3887C4.32422 10.2832 4.19238 10.2305 4.03418 10.2305C3.87598 10.2305 3.74121 10.2861 3.62988 10.3975C3.51855 10.5088 3.46289 10.6406 3.46289 10.793C3.46289 10.9453 3.52148 11.0742 3.63867 11.1797L4.83398 12.375L3.63867 13.5703C3.56836 13.6406 3.51855 13.7256 3.48926 13.8252C3.45996 13.9248 3.45996 14.0215 3.48926 14.1152C3.51855 14.209 3.56836 14.291 3.63867 14.3613C3.68555 14.4199 3.74414 14.4639 3.81445 14.4932C3.88477 14.5225 3.95801 14.5371 4.03418 14.5371C4.11035 14.5371 4.18359 14.5225 4.25391 14.4932C4.32422 14.4639 4.38281 14.4199 4.42969 14.3613L5.625 13.1836L6.82031 14.3613C6.86719 14.4199 6.92578 14.4639 6.99609 14.4932C7.06641 14.5225 7.13965 14.5371 7.21582 14.5371C7.29199 14.5371 7.36523 14.5225 7.43555 14.4932C7.50586 14.4639 7.56445 14.4199 7.61133 14.3613C7.88086 14.1035 7.88086 13.8398 7.61133 13.5703L6.41602 12.375L7.61133 11.1797C7.72852 11.0742 7.78711 10.9453 7.78711 10.793C7.78711 10.6406 7.73145 10.5088 7.62012 10.3975ZM10.6875 6.1875H14.0625C14.2148 6.1875 14.3467 6.13477 14.458 6.0293C14.5693 5.92383 14.625 5.79199 14.625 5.63379C14.625 5.47559 14.5693 5.34082 14.458 5.22949C14.3467 5.11816 14.2148 5.0625 14.0625 5.0625H10.6875C10.5352 5.0625 10.4033 5.11816 10.292 5.22949C10.1807 5.34082 10.125 5.47559 10.125 5.63379C10.125 5.79199 10.1807 5.92383 10.292 6.0293C10.4033 6.13477 10.5352 6.1875 10.6875 6.1875ZM10.6875 11.8125H14.0625C14.2148 11.8125 14.3467 11.7598 14.458 11.6543C14.5693 11.5488 14.625 11.417 14.625 11.2588C14.625 11.1006 14.5693 10.9658 14.458 10.8545C14.3467 10.7432 14.2148 10.6875 14.0625 10.6875H10.6875C10.5352 10.6875 10.4033 10.7432 10.292 10.8545C10.1807 10.9658 10.125 11.1006 10.125 11.2588C10.125 11.417 10.1807 11.5488 10.292 11.6543C10.4033 11.7598 10.5352 11.8125 10.6875 11.8125ZM10.6875 14.0625H14.0625C14.2148 14.0625 14.3467 14.0098 14.458 13.9043C14.5693 13.7988 14.625 13.667 14.625 13.5088C14.625 13.3506 14.5693 13.2158 14.458 13.1045C14.3467 12.9932 14.2148 12.9375 14.0625 12.9375H10.6875C10.5352 12.9375 10.4033 12.9932 10.292 13.1045C10.1807 13.2158 10.125 13.3506 10.125 13.5088C10.125 13.667 10.1807 13.7988 10.292 13.9043C10.4033 14.0098 10.5352 14.0625 10.6875 14.0625Z" fill="#001AFF"/>
</g>
<defs>
<clipPath id="clip0_302_100">
<rect width="18" height="18" fill="white"/>
</clipPath>
</defs>
</svg>
