<svg width="20" height="20" viewBox="0 0 20 20" fill="none" xmlns="http://www.w3.org/2000/svg">
<path d="M16.349 3.651C16.4167 3.71871 16.4705 3.7991 16.5071 3.88758C16.5438 3.97606 16.5626 4.07089 16.5626 4.16667C16.5626 4.26244 16.5438 4.35727 16.5071 4.44575C16.4705 4.53423 16.4167 4.61462 16.349 4.68233L4.68233 16.349C4.61461 16.4167 4.53422 16.4704 4.44574 16.5071C4.35727 16.5437 4.26243 16.5626 4.16667 16.5626C4.0709 16.5626 3.97607 16.5437 3.88759 16.5071C3.79911 16.4704 3.71872 16.4167 3.651 16.349C3.58328 16.2813 3.52956 16.2009 3.49292 16.1124C3.45627 16.0239 3.4374 15.9291 3.4374 15.8333C3.4374 15.7376 3.45627 15.6427 3.49292 15.5543C3.52956 15.4658 3.58328 15.3854 3.651 15.3177L15.3177 3.651C15.3854 3.58327 15.4658 3.52954 15.5542 3.49289C15.6427 3.45623 15.7376 3.43736 15.8333 3.43736C15.9291 3.43736 16.0239 3.45623 16.1124 3.49289C16.2009 3.52954 16.2813 3.58327 16.349 3.651ZM5.91667 7.66667C5.45254 7.66667 5.00742 7.48229 4.67923 7.1541C4.35104 6.82591 4.16667 6.3808 4.16667 5.91667C4.16667 5.45254 4.35104 5.00742 4.67923 4.67923C5.00742 4.35104 5.45254 4.16667 5.91667 4.16667C6.3808 4.16667 6.82591 4.35104 7.1541 4.67923C7.48229 5.00742 7.66667 5.45254 7.66667 5.91667C7.66667 6.3808 7.48229 6.82591 7.1541 7.1541C6.82591 7.48229 6.3808 7.66667 5.91667 7.66667ZM5.91667 8.83333C6.69021 8.83333 7.43208 8.52604 7.97906 7.97906C8.52604 7.43208 8.83333 6.69021 8.83333 5.91667C8.83333 5.14312 8.52604 4.40125 7.97906 3.85427C7.43208 3.30729 6.69021 3 5.91667 3C5.14312 3 4.40125 3.30729 3.85427 3.85427C3.30729 4.40125 3 5.14312 3 5.91667C3 6.69021 3.30729 7.43208 3.85427 7.97906C4.40125 8.52604 5.14312 8.83333 5.91667 8.83333ZM14.0833 15.8333C13.6192 15.8333 13.1741 15.649 12.8459 15.3208C12.5177 14.9926 12.3333 14.5475 12.3333 14.0833C12.3333 13.6192 12.5177 13.1741 12.8459 12.8459C13.1741 12.5177 13.6192 12.3333 14.0833 12.3333C14.5475 12.3333 14.9926 12.5177 15.3208 12.8459C15.649 13.1741 15.8333 13.6192 15.8333 14.0833C15.8333 14.5475 15.649 14.9926 15.3208 15.3208C14.9926 15.649 14.5475 15.8333 14.0833 15.8333ZM14.0833 17C14.8569 17 15.5987 16.6927 16.1457 16.1457C16.6927 15.5987 17 14.8569 17 14.0833C17 13.3098 16.6927 12.5679 16.1457 12.0209C15.5987 11.474 14.8569 11.1667 14.0833 11.1667C13.3098 11.1667 12.5679 11.474 12.0209 12.0209C11.474 12.5679 11.1667 13.3098 11.1667 14.0833C11.1667 14.8569 11.474 15.5987 12.0209 16.1457C12.5679 16.6927 13.3098 17 14.0833 17Z" fill="#001AFF"/>
</svg>
