<svg width="20" height="20" viewBox="0 0 20 20" fill="none" xmlns="http://www.w3.org/2000/svg">
<path fill-rule="evenodd" clip-rule="evenodd" d="M4.79167 2.5H15.21C15.8168 2.50181 16.3982 2.74366 16.8273 3.17273C17.2563 3.6018 17.4982 4.18322 17.5 4.79001L17.5 4.79167L17.5 9.30556C17.5 9.61238 17.2513 9.86111 16.9444 9.86111H3.05556C2.74873 9.86111 2.5 9.61238 2.5 9.30556V4.79001C2.50181 4.18322 2.74366 3.6018 3.17273 3.17273C3.6018 2.74366 4.18322 2.50181 4.79001 2.5L4.79167 2.5ZM4.79257 3.61111C4.47959 3.61224 4.17973 3.73708 3.95841 3.95841C3.73708 4.17973 3.61224 4.47959 3.61111 4.79257V8.75H16.3889V4.79268C16.3878 4.47966 16.2629 4.17976 16.0416 3.95841C15.8203 3.73708 15.5204 3.61224 15.2074 3.61111H4.79257Z" fill="#666666"/>
<path fill-rule="evenodd" clip-rule="evenodd" d="M3.74838 8.75L3.75002 8.75L16.2517 8.75C17.1345 8.75261 17.9804 9.10447 18.6046 9.72872C19.2289 10.353 19.5807 11.1989 19.5834 12.0817L19.5834 12.0833L19.5834 16.9444C19.5834 17.2513 19.3346 17.5 19.0278 17.5C18.721 17.5 18.4722 17.2513 18.4722 16.9444V12.0843C18.4703 11.4953 18.2355 10.9309 17.819 10.5144C17.4025 10.0979 16.8381 9.86306 16.2492 9.86111H3.75089C3.1619 9.86306 2.59757 10.0979 2.18108 10.5144C1.76458 10.9309 1.52974 11.4952 1.5278 12.0842V16.9444C1.5278 17.2513 1.27907 17.5 0.972243 17.5C0.665418 17.5 0.416687 17.2513 0.416687 16.9444V12.0817C0.419296 11.1989 0.771153 10.353 1.3954 9.72872C2.01965 9.10447 2.86556 8.75261 3.74838 8.75Z" fill="#666666"/>
<path fill-rule="evenodd" clip-rule="evenodd" d="M2.01391 15H17.9877C18.4105 15.0012 18.8157 15.1697 19.1147 15.4687C19.4136 15.7677 19.5821 16.1728 19.5834 16.5956L19.5834 16.5972L19.5834 16.9444C19.5834 17.2513 19.3346 17.5 19.0278 17.5C18.721 17.5 18.4722 17.2513 18.4722 16.9444V16.5982C18.4717 16.4692 18.4202 16.3456 18.329 16.2544C18.2377 16.1631 18.1142 16.1117 17.9852 16.1111H2.01487C1.88586 16.1117 1.76229 16.1631 1.67106 16.2544C1.57983 16.3456 1.52835 16.4692 1.5278 16.5982V16.9444C1.5278 17.2513 1.27907 17.5 0.972243 17.5C0.665418 17.5 0.416687 17.2513 0.416687 16.9444V16.5956C0.417915 16.1728 0.58642 15.7677 0.885388 15.4687C1.18436 15.1697 1.58949 15.0012 2.0123 15L2.01391 15Z" fill="#666666"/>
<path fill-rule="evenodd" clip-rule="evenodd" d="M5.1389 6.66667H8.61268C9.12752 6.66812 9.62087 6.87328 9.98492 7.23732C10.349 7.60137 10.5541 8.09472 10.5556 8.60956L10.5556 8.61112L10.5556 9.30556C10.5556 9.61238 10.3068 9.86112 10 9.86112C9.69319 9.86112 9.44446 9.61238 9.44446 9.30556V8.61201C9.44366 8.39101 9.35552 8.17928 9.19924 8.023C9.04296 7.86672 8.83124 7.77858 8.61025 7.77778H5.13978C4.91879 7.77858 4.70706 7.86672 4.55079 8.023C4.39451 8.17928 4.30637 8.391 4.30557 8.61199V9.30556C4.30557 9.61238 4.05684 9.86112 3.75001 9.86112C3.44319 9.86112 3.19446 9.61238 3.19446 9.30556V8.60956C3.1959 8.09472 3.40106 7.60137 3.76511 7.23732C4.12916 6.87328 4.6225 6.66812 5.13735 6.66667L5.1389 6.66667Z" fill="#666666"/>
<path fill-rule="evenodd" clip-rule="evenodd" d="M11.3889 6.66667H14.8627C15.3775 6.66812 15.8709 6.87328 16.2349 7.23732C16.599 7.60137 16.8041 8.09472 16.8056 8.60956L16.8056 8.61112L16.8056 9.30556C16.8056 9.61238 16.5568 9.86112 16.25 9.86112C15.9432 9.86112 15.6945 9.61238 15.6945 9.30556V8.61201C15.6937 8.39101 15.6055 8.17928 15.4492 8.023C15.293 7.86672 15.0812 7.77858 14.8602 7.77778H11.3898C11.1688 7.77858 10.9571 7.86672 10.8008 8.023C10.6445 8.17928 10.5564 8.391 10.5556 8.61199V9.30556C10.5556 9.61238 10.3068 9.86112 10 9.86112C9.69319 9.86112 9.44446 9.61238 9.44446 9.30556V8.60956C9.4459 8.09472 9.65106 7.60137 10.0151 7.23732C10.3792 6.87328 10.8725 6.66812 11.3873 6.66667L11.3889 6.66667Z" fill="#666666"/>
</svg>
